<svg width="875" height="674" viewBox="0 0 875 674" fill="none" xmlns="http://www.w3.org/2000/svg">
<g clip-path="url(#clip0_0_1)">
<path d="M874.576 671.337H0V672.964H874.576V671.337Z" fill="#2F2E41"/>
<path d="M805.616 159.949H801.916V58.637C801.916 50.9366 800.4 43.3115 797.454 36.1971C794.507 29.0828 790.188 22.6184 784.743 17.1732C779.299 11.7279 772.835 7.40843 765.721 4.46134C758.606 1.51425 750.981 -0.00272809 743.281 -0.00299072H528.636C513.085 -0.00299072 498.17 6.17482 487.173 17.1714C476.177 28.168 469.999 43.0825 469.999 58.634V614.444C469.999 629.995 476.177 644.91 487.173 655.907C498.17 666.903 513.085 673.081 528.636 673.081H743.281C758.833 673.081 773.747 666.903 784.744 655.907C795.74 644.91 801.918 629.995 801.918 614.444V232.065H805.618L805.616 159.949Z" fill="#3F3D56"/>
<path d="M789.437 59.046V614.036C789.437 625.65 784.823 636.788 776.611 645.001C768.398 653.213 757.26 657.827 745.646 657.827H529.972C518.358 657.827 507.22 653.213 499.007 645.001C490.795 636.788 486.181 625.65 486.181 614.036V59.046C486.182 47.4327 490.796 36.2953 499.008 28.0837C507.22 19.872 518.358 15.2585 529.971 15.258H556.136C554.85 18.4173 554.361 21.8441 554.71 25.237C555.06 28.6299 556.238 31.885 558.141 34.7158C560.043 37.5466 562.613 39.8664 565.622 41.4712C568.632 43.076 571.99 43.9166 575.401 43.919H698.368C701.779 43.9164 705.137 43.0757 708.146 41.4709C711.156 39.866 713.725 37.5462 715.628 34.7154C717.53 31.8846 718.708 28.6296 719.058 25.2368C719.407 21.8439 718.918 18.4172 717.632 15.258H745.646C757.26 15.2583 768.398 19.872 776.611 28.0844C784.823 36.2967 789.437 47.435 789.437 59.049V59.046Z" fill="white"/>
<path d="M602.4 145.584C602.4 145.584 600.482 138.684 597.6 136.953V145.584C597.6 145.584 586.092 143.858 577.94 152.484L585.612 154.21C585.612 154.21 574.343 157.95 571.946 174.061L576.746 171.761L589.693 199.38L597.845 184.42L614.145 201.106L610.309 191.9L616.543 194.777L612.227 187.297L631.408 195.928L629.969 191.328L636.997 203.104C636.997 203.104 661.138 178.094 634.764 151.626C634.767 151.626 622.779 138.967 602.4 145.584Z" fill="#2F2E41"/>
<path d="M600.186 207.033C600.186 207.033 607.334 234.197 605.186 237.771C603.038 241.345 625.916 260.646 625.916 260.646L648.076 256.357L649.506 225.619C649.506 225.619 629.49 208.463 633.78 195.596L600.186 207.033Z" fill="#FFB9B9"/>
<path opacity="0.1" d="M600.186 207.033C600.186 207.033 607.334 234.197 605.186 237.771C603.038 241.345 625.916 260.646 625.916 260.646L648.076 256.357L649.506 225.619C649.506 225.619 629.49 208.463 633.78 195.596L600.186 207.033Z" fill="black"/>
<path d="M581.6 378.598C581.6 378.598 575.881 414.34 580.17 443.648C584.459 472.956 586.604 494.401 584.459 498.69C582.314 502.979 580.17 502.264 581.6 507.268C583.03 512.272 585.889 510.127 583.03 515.131C580.171 520.135 580.886 528.713 580.886 530.857C580.886 533.001 577.312 579.466 580.886 584.47C584.46 589.474 585.886 588.759 585.886 588.759L590.175 614.493L613.05 610.919L609.476 587.329C609.476 587.329 618.054 583.04 614.476 580.181C610.898 577.322 608.757 577.322 610.902 577.322C613.047 577.322 616.621 576.607 613.761 575.177C610.901 573.747 613.046 535.146 613.046 535.146C613.046 535.146 618.046 464.377 638.065 466.522C658.084 468.667 673.811 510.128 673.811 510.128L679.53 528.714C679.53 528.714 681.674 563.741 683.104 566.6C684.534 569.459 683.819 570.174 683.104 571.6C682.389 573.026 677.385 569.455 682.389 575.174C687.393 580.893 687.389 583.037 687.389 583.037L690.606 620.566L713.845 605.92V583.76C713.845 583.76 718.134 576.612 716.704 570.893C715.274 565.174 715.274 538.01 716.704 533.007C718.134 528.004 717.419 526.573 715.989 524.429C714.559 522.285 710.989 523.714 713.844 518.71C716.699 513.706 718.844 500.839 714.559 491.546C710.274 482.253 686.68 390.754 676.673 385.746C666.666 380.738 581.6 378.598 581.6 378.598Z" fill="#2F2E41"/>
<path d="M613.053 598.767C613.053 598.767 596.612 595.908 595.897 600.197C595.504 603.76 595.504 607.356 595.897 610.919C595.897 610.919 590.178 611.634 590.897 616.638C591.616 621.642 592.327 635.224 592.327 635.224C592.327 635.224 583.392 656.312 588.395 661.316C588.445 661.366 598.266 660.959 603.911 660.959H624.494C624.494 660.959 627.353 650.951 624.494 649.522C621.635 648.093 615.201 635.222 615.916 632.366C616.631 629.51 615.916 608.776 615.916 608.776L612.759 608.954L613.053 598.767Z" fill="#3F3D56"/>
<path d="M696.689 611.634L688.111 618.068C688.111 618.068 691.685 630.22 689.541 632.368C687.397 634.516 682.75 659.175 687.041 660.604C691.332 662.033 717.779 659.889 717.779 659.889C717.779 659.889 747.445 660.961 748.159 659.532C748.873 658.103 750.304 649.524 741.726 646.665C733.148 643.806 728.144 644.521 725.285 635.942C722.426 627.363 715.992 614.497 715.992 614.497L714.562 598.771C714.562 598.771 705.984 600.201 704.554 600.201C703.124 600.201 695.976 603.775 696.691 606.635C697.126 608.273 697.125 609.996 696.689 611.634Z" fill="#3F3D56"/>
<path d="M612.338 215.972C628.722 215.972 642.004 202.69 642.004 186.306C642.004 169.922 628.722 156.64 612.338 156.64C595.954 156.64 582.672 169.922 582.672 186.306C582.672 202.69 595.954 215.972 612.338 215.972Z" fill="#FFB9B9"/>
<path d="M631.639 237.06L642.362 218.318C642.362 218.318 667.381 217.044 668.811 219.904C670.241 222.764 682.393 364.304 682.393 364.304C682.393 364.304 688.112 372.167 684.537 377.171L680.963 382.171V392.179C680.963 392.179 663.092 406.479 638.788 403.616C614.484 400.753 583.746 387.89 583.746 387.89L590.18 347.859L589.465 229.911L603.865 222.891C603.865 222.891 620.2 234.2 623.059 237.774C625.918 241.348 631.639 237.06 631.639 237.06Z" fill="#3CF3F2"/>
<path d="M606.619 237.06L603.402 218.117L559.439 249.217L583.739 320.701C583.739 320.701 568.727 347.865 571.587 357.873C574.447 367.881 575.876 382.892 575.876 382.892C575.876 382.892 614.476 392.9 613.762 387.892C613.048 382.884 613.762 360.728 613.762 360.728C613.762 360.728 626.262 268.154 620.011 254.037C613.76 239.92 606.619 237.06 606.619 237.06Z" fill="#E6E6E6"/>
<path d="M645.935 227.767L639.144 214.542C639.144 214.128 687.393 220.802 689.544 224.907L683.822 334.993C683.822 334.993 684.537 350.719 688.111 355.008C691.685 359.297 690.97 366.445 689.541 367.16C688.112 367.875 664.522 375.023 664.522 375.023C664.522 375.023 641.647 335.707 643.792 288.523C645.937 241.339 645.935 227.767 645.935 227.767Z" fill="#E6E6E6"/>
<path d="M680.963 225.622L688.534 224.01C691.497 225.677 693.853 228.244 695.26 231.34C697.405 236.34 722.424 289.957 722.424 293.531C722.424 297.105 723.139 323.554 707.412 323.554C691.685 323.554 679.533 256.359 679.533 256.359L680.963 225.622Z" fill="#E6E6E6"/>
<path d="M573.737 410.765L586.604 430.065L593.752 405.765L588.752 398.617L573.737 410.765Z" fill="#FFB9B9"/>
<path d="M565.873 249.926L559.44 249.212L543.713 333.562L570.877 417.913L594.467 400.042L578.026 343.57L583.744 299.965L565.873 249.926Z" fill="#E6E6E6"/>
<path d="M643.309 177.936C639.381 163.618 627.097 153.168 612.542 153.168C607.467 153.22 602.48 154.505 598.011 156.911C593.542 159.317 589.724 162.773 586.887 166.982L594.227 181.048L601.546 168.982L616.183 182.44L612.739 175.015L618.339 177.335L614.464 171.302L631.684 178.263L630.392 174.55L638.572 185.224C640.473 183.02 642.067 180.568 643.309 177.936Z" fill="#2F2E41"/>
<path opacity="0.1" d="M676.316 260.292L695.577 277.085L685.609 255.285L676.316 260.292Z" fill="black"/>
<path d="M668.095 257.79C668.095 257.79 658.802 229.196 647.365 234.2C635.928 239.204 651.654 269.227 651.654 269.227L661.662 275.661L668.095 257.79Z" fill="#FFB9B9"/>
<path d="M717.419 294.247L667.38 254.931L649.509 281.381C649.509 281.381 696.688 331.42 707.409 321.412C718.13 311.404 717.419 294.247 717.419 294.247Z" fill="#E6E6E6"/>
<path d="M188.36 178.627H140.84V190.067H188.36V178.627Z" fill="#3CF3F2"/>
<path d="M352.92 178.627H336.2V190.067H352.92V178.627Z" fill="#3CF3F2"/>
<path d="M386.36 178.627H369.64V190.067H386.36V178.627Z" fill="#3CF3F2"/>
<path d="M318.6 178.627H205.08V190.067H318.6V178.627Z" fill="#3CF3F2"/>
<path d="M128.52 252.547H81V263.987H128.52V252.547Z" fill="#3CF3F2"/>
<path d="M293.08 252.547H276.36V263.987H293.08V252.547Z" fill="#3CF3F2"/>
<path d="M326.52 252.547H309.8V263.987H326.52V252.547Z" fill="#3CF3F2"/>
<path d="M258.76 252.547H145.24V263.987H258.76V252.547Z" fill="#3CF3F2"/>
<path d="M324.76 204.147H277.24V215.587H324.76V204.147Z" fill="#3CF3F2"/>
<path d="M389 204.147H341.48V215.587H389V204.147Z" fill="#3CF3F2"/>
<path d="M97.72 204.147H81V215.587H97.72V204.147Z" fill="#3CF3F2"/>
<path d="M131.16 204.147H114.44V215.587H131.16V204.147Z" fill="#3CF3F2"/>
<path d="M261.4 204.147H147.88V215.587H261.4V204.147Z" fill="#3CF3F2"/>
<path d="M178.68 240.227H226.2V228.787H178.68V240.227Z" fill="#3CF3F2"/>
<path d="M114.44 240.227H161.96V228.787H114.44V240.227Z" fill="#3CF3F2"/>
<path d="M81 240.227H97.72V228.787H81V240.227Z" fill="#3CF3F2"/>
<path d="M372.28 240.227H389V228.787H372.28V240.227Z" fill="#3CF3F2"/>
<path d="M242.04 240.227H355.56V228.787H242.04V240.227Z" fill="#3CF3F2"/>
<path d="M62.685 671.474L61.745 671.122C61.538 671.044 40.978 663.167 31.345 645.305C21.712 627.443 26.429 605.935 26.478 605.721L26.7 604.742L27.64 605.094C27.847 605.172 48.407 613.049 58.04 630.911C67.673 648.773 62.956 670.281 62.907 670.495L62.685 671.474ZM32.885 644.474C41.028 659.574 57.276 667.318 61.392 669.085C62.175 664.673 64.629 646.83 56.492 631.743C48.355 616.656 32.103 608.903 27.985 607.132C27.206 611.546 24.753 629.386 32.888 644.473L32.885 644.474Z" fill="#3F3D56"/>
<path d="M38.707 639.039C56.016 649.453 62.682 670.139 62.682 670.139C62.682 670.139 41.282 673.939 23.976 663.526C6.66998 653.113 0.000976562 632.426 0.000976562 632.426C0.000976562 632.426 21.398 628.625 38.707 639.039Z" fill="#04FA1C"/>
<path d="M524.895 650.704L546.895 619.756L524.847 654.094L524.799 657.64C523.252 657.611 521.722 657.545 520.207 657.44C520.207 656.635 522.495 612.354 522.425 611.552C522.532 611.523 522.634 607.364 522.678 607.182L500.358 572.898L522.734 603.959L522.793 604.871L524.483 570.471L505.357 535.031L524.698 564.425C524.71 563.957 526.339 493.299 526.353 492.863C526.353 493.095 526.219 549.104 526.219 549.34L545.074 526.984L526.152 554.184L525.752 584.984L543.343 555.373C521.333 598.597 526.26 583.444 525.476 606.644L551.003 565.419L525.394 612.619L524.895 650.704Z" fill="#D0CDE1"/>
<path d="M754.617 652.866L769.761 631.566L754.587 655.199L754.554 657.639C753.487 657.62 752.434 657.574 751.394 657.503C751.394 656.949 752.969 626.473 752.921 625.921C752.995 625.901 753.065 623.039 753.095 622.914L737.734 599.314L753.134 620.691L753.174 621.319L754.337 597.641L741.173 573.25L754.484 593.48C754.492 593.158 755.614 544.528 755.623 544.228C755.623 544.387 755.53 582.936 755.531 583.098L768.508 567.711L755.485 586.431L755.207 607.631L767.307 587.249C752.159 616.998 755.55 606.568 755.007 622.536L772.576 594.163L754.962 626.653L754.617 652.866Z" fill="#D0CDE1"/>
<path d="M516.284 70.603C517.487 70.603 518.462 69.6279 518.462 68.425C518.462 67.2221 517.487 66.247 516.284 66.247C515.081 66.247 514.106 67.2221 514.106 68.425C514.106 69.6279 515.081 70.603 516.284 70.603Z" fill="#3F3D56"/>
<path d="M524.27 70.603C525.473 70.603 526.448 69.6279 526.448 68.425C526.448 67.2221 525.473 66.247 524.27 66.247C523.067 66.247 522.092 67.2221 522.092 68.425C522.092 69.6279 523.067 70.603 524.27 70.603Z" fill="#3F3D56"/>
<path d="M532.257 70.603C533.46 70.603 534.435 69.6279 534.435 68.425C534.435 67.2221 533.46 66.247 532.257 66.247C531.054 66.247 530.079 67.2221 530.079 68.425C530.079 69.6279 531.054 70.603 532.257 70.603Z" fill="#3F3D56"/>
<path d="M760.244 62.617H737.736V65.521H760.244V62.617Z" fill="#3F3D56"/>
<path d="M760.244 66.973H737.736V69.877H760.244V66.973Z" fill="#3F3D56"/>
<path d="M760.244 71.33H737.736V74.234H760.244V71.33Z" fill="#3F3D56"/>
</g>
<defs>
<clipPath id="clip0_0_1">
<rect width="874.576" height="673.081" fill="white"/>
</clipPath>
</defs>
</svg>
