<svg width="906" height="731" viewBox="0 0 906 731" fill="none" xmlns="http://www.w3.org/2000/svg">
<g clip-path="url(#clip0_0_1)">
<path d="M894.357 648.497C891.039 621.819 874.506 595.534 849.063 586.852C859.097 614.311 859.095 644.434 849.057 671.892C845.147 682.468 839.698 693.823 843.375 704.481C845.663 711.113 851.261 716.187 857.518 719.36C863.775 722.532 870.719 724.044 877.576 725.526L878.926 726.642C889.812 702.061 897.675 675.175 894.357 648.497Z" fill="#04FA1C"/>
<path d="M848.81 587.356C863.627 603.958 872.836 624.806 875.129 646.94C875.708 651.696 875.533 656.513 874.611 661.215C873.565 665.766 871.319 669.953 868.107 673.343C865.176 676.564 861.805 679.518 859.707 683.395C858.663 685.396 858.054 687.595 857.919 689.847C857.784 692.1 858.127 694.355 858.925 696.466C860.777 701.777 864.427 706.106 868.143 710.216C872.269 714.778 876.627 719.452 878.381 725.501C878.593 726.234 879.718 725.861 879.506 725.129C876.454 714.605 866.238 708.628 861.366 699.149C859.093 694.726 858.139 689.591 860.27 684.922C862.134 680.839 865.608 677.789 868.604 674.554C871.786 671.293 874.121 667.303 875.405 662.932C876.563 658.292 876.923 653.49 876.47 648.729C875.621 637.996 873.09 627.463 868.969 617.516C864.328 606.137 857.776 595.636 849.594 586.468C849.088 585.9 848.307 586.793 848.81 587.356Z" fill="white"/>
<path d="M874.811 639.769C878.472 638.88 881.698 636.719 883.913 633.671C886.127 630.623 887.187 626.887 886.901 623.13C886.841 622.37 885.657 622.428 885.718 623.189C885.99 626.687 885.003 630.167 882.935 633.001C880.866 635.835 877.853 637.837 874.439 638.644C873.697 638.82 874.073 639.945 874.811 639.769Z" fill="white"/>
<path d="M869.809 671.906C863.196 667.957 858.314 661.662 856.137 654.274C855.922 653.542 854.797 653.914 855.012 654.645C857.292 662.329 862.385 668.87 869.276 672.964C869.933 673.354 870.462 672.293 869.809 671.906Z" fill="white"/>
<path d="M863.229 607.26C861.884 607.899 860.401 608.194 858.914 608.118C857.427 608.043 855.982 607.599 854.709 606.827C854.057 606.429 853.528 607.49 854.176 607.886C855.587 608.732 857.183 609.22 858.826 609.307C860.469 609.394 862.108 609.078 863.601 608.385C863.747 608.331 863.867 608.224 863.937 608.085C864.007 607.946 864.021 607.786 863.977 607.637C863.927 607.488 863.821 607.365 863.681 607.294C863.541 607.224 863.378 607.211 863.229 607.26Z" fill="white"/>
<path d="M771.509 634.502C771.909 634.762 772.309 635.022 772.71 635.292C778.068 638.816 783.131 642.769 787.849 647.112C788.219 647.442 788.589 647.782 788.949 648.122C800.205 658.708 809.397 671.291 816.059 685.232C818.705 690.782 820.925 696.525 822.699 702.412C825.15 710.542 827.159 719.552 832.009 726.202C832.508 726.902 833.049 727.57 833.63 728.202H877.46C877.559 728.152 877.659 728.112 877.759 728.062L879.509 728.142C879.439 727.832 879.36 727.512 879.289 727.202C879.249 727.022 879.199 726.842 879.159 726.662C879.13 726.542 879.099 726.422 879.079 726.312C879.07 726.272 879.059 726.232 879.049 726.202C879.029 726.092 878.999 725.992 878.979 725.892C878.539 724.102 878.086 722.312 877.619 720.522C877.619 720.512 877.619 720.512 877.61 720.502C874.019 706.872 869.259 693.422 862.609 681.122C862.409 680.752 862.21 680.372 861.989 680.002C858.961 674.474 855.486 669.204 851.599 664.242C849.462 661.532 847.189 658.932 844.789 656.452C838.576 650.056 831.395 644.677 823.509 640.512C807.789 632.212 789.589 629.032 772.789 634.102C772.359 634.232 771.939 634.362 771.509 634.502Z" fill="#04FA1C"/>
<path d="M771.608 635.058C793.434 639.393 813.339 650.495 828.496 666.787C831.821 670.236 834.582 674.188 836.676 678.497C838.581 682.76 839.309 687.456 838.786 692.096C838.384 696.432 837.471 700.821 838.131 705.18C838.502 707.406 839.339 709.528 840.587 711.408C841.836 713.287 843.468 714.882 845.376 716.087C850.052 719.212 855.572 720.472 861.014 721.515C867.055 722.674 873.349 723.782 878.391 727.556C879.002 728.013 879.676 727.038 879.066 726.582C870.293 720.016 858.537 721.394 848.94 716.759C844.462 714.596 840.608 711.071 839.499 706.06C838.529 701.678 839.466 697.151 839.911 692.764C840.488 688.245 839.95 683.653 838.344 679.39C836.475 674.988 833.871 670.936 830.644 667.408C823.504 659.35 815.141 652.464 805.861 647.003C795.306 640.711 783.752 636.272 771.699 633.877C770.953 633.729 770.867 634.911 771.608 635.058Z" fill="white"/>
<path d="M823.924 661.253C826.312 658.339 827.587 654.671 827.52 650.904C827.453 647.137 826.05 643.516 823.56 640.689C823.054 640.118 822.144 640.877 822.65 641.449C824.974 644.078 826.281 647.45 826.336 650.958C826.391 654.466 825.19 657.878 822.95 660.579C822.464 661.166 823.441 661.837 823.924 661.253H823.924Z" fill="white"/>
<path d="M839.279 689.924C831.622 690.753 823.933 688.665 817.747 684.077C817.135 683.622 816.461 684.597 817.073 685.051C823.519 689.813 831.524 691.97 839.49 691.09C840.25 691.005 840.034 689.84 839.279 689.924V689.924Z" fill="white"/>
<path d="M795.104 642.269C794.415 643.589 793.409 644.718 792.176 645.553C790.943 646.388 789.522 646.904 788.04 647.054C787.28 647.129 787.497 648.294 788.252 648.22C789.888 648.046 791.457 647.474 792.821 646.555C794.185 645.635 795.303 644.395 796.078 642.944C796.162 642.813 796.194 642.655 796.166 642.502C796.138 642.349 796.053 642.212 795.928 642.12C795.799 642.031 795.64 641.997 795.485 642.025C795.331 642.053 795.194 642.141 795.104 642.269Z" fill="white"/>
<path d="M459.798 172.947H455.8V63.4019C455.8 55.0759 454.16 46.8313 450.973 39.1391C447.787 31.4468 443.117 24.4574 437.23 18.57C431.342 12.6826 424.353 8.01244 416.661 4.82619C408.968 1.63995 400.724 6.56629e-06 392.398 2.02178e-10H160.311C143.496 -4.24345e-05 127.369 6.67973 115.479 18.5698C103.589 30.46 96.9091 46.5864 96.9091 63.4016V664.376C96.9091 681.191 103.589 697.318 115.479 709.208C127.369 721.098 143.496 727.778 160.311 727.778H392.398C409.213 727.778 425.339 721.098 437.229 709.208C449.12 697.318 455.799 681.192 455.799 664.376V250.924H459.798L459.798 172.947Z" fill="#3F3D56"/>
<path d="M394.956 16.495H364.661C366.054 19.9106 366.586 23.6165 366.209 27.2861C365.833 30.9556 364.56 34.4764 362.502 37.538C360.445 40.5997 357.666 43.1084 354.41 44.8431C351.155 46.5778 347.523 47.4852 343.834 47.4855H210.874C207.185 47.4852 203.553 46.5778 200.298 44.8431C197.042 43.1084 194.263 40.5997 192.206 37.538C190.148 34.4763 188.875 30.9556 188.499 27.286C188.122 23.6164 188.654 19.9106 190.047 16.4949H161.752C155.534 16.4949 149.377 17.7196 143.632 20.0991C137.888 22.4785 132.668 25.9661 128.272 30.3627C123.875 34.7594 120.387 39.979 118.008 45.7235C115.628 51.468 114.404 57.6249 114.404 63.8427V663.935C114.404 670.153 115.628 676.31 118.008 682.055C120.387 687.799 123.875 693.019 128.271 697.415C132.668 701.812 137.888 705.299 143.632 707.679C149.377 710.058 155.534 711.283 161.751 711.283H394.956C401.174 711.283 407.331 710.058 413.075 707.679C418.82 705.299 424.039 701.812 428.436 697.415C432.832 693.019 436.32 687.799 438.7 682.055C441.079 676.31 442.304 670.153 442.304 663.935V63.8427C442.304 57.6249 441.079 51.468 438.7 45.7235C436.32 39.979 432.832 34.7594 428.436 30.3628C424.039 25.9661 418.82 22.4785 413.075 20.0991C407.331 17.7196 401.174 16.495 394.956 16.495Z" fill="white"/>
<path d="M310.776 177.704H228.116V185.38H310.776V177.704Z" fill="#56D8F5"/>
<path d="M372.185 204.259H228.116V211.935H372.185V204.259Z" fill="#E6E6E6"/>
<path d="M372.044 230.813H228.116V238.489H372.044V230.813Z" fill="#E6E6E6"/>
<path d="M210.986 177.818H149.576V239.228H210.986V177.818Z" fill="#56D8F5"/>
<path d="M310.776 338.904H228.116V346.58H310.776V338.904Z" fill="#56D8F5"/>
<path d="M372.185 365.458H228.116V373.134H372.185V365.458Z" fill="#E6E6E6"/>
<path d="M372.044 392.012H228.116V399.688H372.044V392.012Z" fill="#E6E6E6"/>
<path d="M210.986 339.018H149.576V400.427H210.986V339.018Z" fill="#56D8F5"/>
<path d="M310.776 500.103H228.116V507.779H310.776V500.103Z" fill="#56D8F5"/>
<path d="M372.185 526.657H228.116V534.334H372.185V526.657Z" fill="#E6E6E6"/>
<path d="M372.044 553.212H228.116V560.888H372.044V553.212Z" fill="#E6E6E6"/>
<path d="M210.986 500.217H149.576V561.626H210.986V500.217Z" fill="#56D8F5"/>
<path d="M725.531 715.905L713.29 716.579L704.864 669.683L722.931 668.689L725.531 715.905Z" fill="#FFB6B6"/>
<path d="M729.307 727.599L689.836 729.772L689.808 729.273C689.584 725.199 690.987 721.202 693.71 718.162C696.432 715.122 700.25 713.288 704.325 713.063L704.326 713.063L728.433 711.736L729.307 727.599Z" fill="#2F2E41"/>
<path d="M468.885 527.295L467.301 515.138L513.439 503.242L515.777 521.184L468.885 527.295Z" fill="#FFB6B6"/>
<path d="M457.505 531.931L452.397 492.732L452.893 492.667C456.939 492.14 461.029 493.242 464.264 495.73C467.498 498.218 469.611 501.889 470.139 505.936L470.139 505.937L473.259 529.878L457.505 531.931Z" fill="#2F2E41"/>
<path d="M623.638 450.462C624.173 450.605 624.695 450.79 625.201 451.015L667.155 424.57L666.706 412.53L684.788 409.478L687.653 430.715C687.885 432.431 687.553 434.175 686.709 435.686C685.865 437.198 684.553 438.394 682.971 439.097L631.401 461.987C631.123 464.101 630.209 466.079 628.779 467.661C627.35 469.242 625.472 470.35 623.397 470.838C621.322 471.326 619.148 471.171 617.163 470.394C615.179 469.616 613.478 468.252 612.287 466.484C611.096 464.716 610.472 462.628 610.497 460.496C610.522 458.365 611.196 456.291 612.428 454.552C613.66 452.813 615.393 451.49 617.395 450.759C619.398 450.028 621.575 449.925 623.638 450.462Z" fill="#FFB6B6"/>
<path d="M665.239 422.892C664.738 422.483 664.333 421.97 664.049 421.389C663.765 420.808 663.61 420.172 663.594 419.526L663.035 396.947C662.469 393.688 663.218 390.337 665.118 387.629C667.018 384.922 669.915 383.078 673.172 382.502C676.43 381.926 679.783 382.665 682.496 384.557C685.21 386.449 687.062 389.34 687.648 392.596L694.757 414.11C694.96 414.724 695.028 415.375 694.957 416.017C694.886 416.66 694.677 417.28 694.344 417.835C694.012 418.389 693.564 418.866 693.031 419.232C692.498 419.598 691.892 419.845 691.255 419.955L668.863 423.847C668.226 423.958 667.572 423.93 666.946 423.765C666.321 423.601 665.738 423.303 665.239 422.892Z" fill="#E4E4E4"/>
<path d="M700.12 360.492C716.937 360.492 730.57 346.859 730.57 330.043C730.57 313.226 716.937 299.593 700.12 299.593C683.303 299.593 669.671 313.226 669.671 330.043C669.671 346.859 683.303 360.492 700.12 360.492Z" fill="#2F2E41"/>
<path d="M710.772 310.595C717.731 310.595 723.372 304.953 723.372 297.995C723.372 291.036 717.731 285.395 710.772 285.395C703.813 285.395 698.172 291.036 698.172 297.995C698.172 304.953 703.813 310.595 710.772 310.595Z" fill="#2F2E41"/>
<path d="M727.572 291.17C727.571 288.056 726.418 285.051 724.334 282.737C722.249 280.423 719.382 278.963 716.284 278.638C716.72 278.593 717.158 278.57 717.597 278.57C720.938 278.57 724.143 279.898 726.506 282.261C728.869 284.623 730.197 287.828 730.197 291.17C730.197 294.512 728.869 297.716 726.506 300.079C724.143 302.442 720.938 303.77 717.597 303.77C717.158 303.77 716.72 303.747 716.284 303.702C719.382 303.377 722.249 301.917 724.334 299.603C726.418 297.288 727.571 294.284 727.572 291.17Z" fill="#2F2E41"/>
<path d="M700.107 363.15C710.741 363.15 719.361 354.53 719.361 343.896C719.361 333.262 710.741 324.642 700.107 324.642C689.473 324.642 680.853 333.262 680.853 343.896C680.853 354.53 689.473 363.15 700.107 363.15Z" fill="#FFB8B8"/>
<path d="M732.157 476.757C732.157 476.757 731.24 499.679 727.572 511.598C723.905 523.517 730.323 692.219 727.114 696.344C723.905 700.47 708.777 699.095 708.777 699.095L694.743 611.202C694.743 611.202 692.273 518.016 658.35 515.724C624.426 513.432 491.94 526.268 491.94 526.268L489.19 507.472L560.246 491.885C560.246 491.885 625.343 469.422 661.1 475.382C696.858 481.342 732.157 476.757 732.157 476.757Z" fill="#2F2E41"/>
<path d="M728.031 365.818C731.698 363.067 740.867 366.734 740.867 366.734L750.952 396.532C750.952 396.532 745.909 422.204 741.325 436.416C736.741 450.627 727.91 513.452 729.743 516.202C731.577 518.953 700.067 496.47 681.271 489.593C662.475 482.717 658.35 474.924 658.35 474.924C658.35 474.924 678.979 445.584 672.102 431.831C665.226 418.078 670.727 402.492 670.727 402.492L667.977 386.905L683.563 378.195C683.563 378.195 724.363 368.568 728.031 365.818Z" fill="#E4E4E4"/>
<path d="M696.578 336.186C708.176 336.186 717.578 330.545 717.578 323.587C717.578 316.628 708.176 310.987 696.578 310.987C684.98 310.987 675.578 316.628 675.578 323.587C675.578 330.545 684.98 336.186 696.578 336.186Z" fill="#2F2E41"/>
<path d="M817.252 373.836C817.024 374.34 816.836 374.861 816.69 375.395L769.646 391.091L760.617 383.114L746.797 395.168L761.41 410.842C762.59 412.109 764.15 412.958 765.854 413.262C767.558 413.567 769.315 413.31 770.861 412.532L821.248 387.144C823.059 388.269 825.17 388.816 827.299 388.712C829.428 388.608 831.475 387.858 833.167 386.562C834.86 385.266 836.118 383.486 836.774 381.458C837.43 379.429 837.453 377.25 836.84 375.208C836.227 373.166 835.007 371.36 833.342 370.029C831.677 368.697 829.646 367.905 827.52 367.756C825.394 367.607 823.272 368.109 821.438 369.195C819.604 370.281 818.144 371.9 817.252 373.836V373.836Z" fill="#FFB6B6"/>
<path d="M768.004 391.954L750.804 406.81C750.315 407.233 749.74 407.545 749.119 407.726C748.498 407.906 747.845 407.951 747.206 407.856C746.566 407.762 745.954 407.531 745.412 407.178C744.869 406.826 744.409 406.361 744.063 405.815L731.925 386.682C729.776 384.166 728.712 380.9 728.968 377.601C729.223 374.302 730.776 371.239 733.287 369.084C735.797 366.928 739.06 365.856 742.36 366.103C745.659 366.35 748.726 367.895 750.889 370.4L768.001 385.14C768.49 385.562 768.884 386.085 769.153 386.673C769.423 387.261 769.562 387.9 769.563 388.546C769.563 389.193 769.424 389.832 769.155 390.42C768.886 391.008 768.494 391.531 768.004 391.954L768.004 391.954Z" fill="#E4E4E4"/>
<path d="M904.485 730.519H1.19069C0.875498 730.518 0.573534 730.392 0.350983 730.169C0.128431 729.946 0.00344849 729.643 0.00344849 729.328C0.00344849 729.013 0.128431 728.711 0.350983 728.487C0.573534 728.264 0.875498 728.138 1.19069 728.137H904.485C904.8 728.137 905.103 728.263 905.327 728.486C905.55 728.71 905.675 729.012 905.675 729.328C905.675 729.644 905.55 729.947 905.327 730.17C905.103 730.393 904.8 730.519 904.485 730.519Z" fill="#3F3D56"/>
</g>
<defs>
<clipPath id="clip0_0_1">
<rect width="905.675" height="730.519" fill="white"/>
</clipPath>
</defs>
</svg>
